<svg width="100%" height="100%" viewBox="0 0 691 243" fill="none" xmlns="http://www.w3.org/2000/svg">
<path d="M59.4834 16.9749V53.357H17.9112V16.9749H8.65029V99H17.9112V62.5161H59.4834V99H68.6935V16.9749H59.4834ZM134.181 26.0832V16.9749H85.994V99H134.181V89.79H95.2549V61.2949H128.991V52.034H95.2549V26.0832H134.181ZM158.148 89.79V16.9749H148.887V99H198.346V89.79H158.148ZM218.903 89.79V16.9749H209.642V99H259.102V89.79H218.903ZM303.778 100.069C327.032 100.069 346.012 81.1397 346.012 58.0383C346.012 34.7843 327.032 15.8046 303.829 15.8046C280.676 15.8046 261.697 34.7843 261.697 58.0383C261.697 81.1397 280.676 100.069 303.778 100.069ZM303.778 90.7059C285.765 90.7059 271.059 76.0004 271.059 57.9875C271.059 39.9236 285.765 25.1164 303.778 25.1164C321.892 25.1164 336.649 39.9236 336.649 57.9875C336.649 76.0004 321.892 90.7059 303.778 90.7059ZM355.171 118.031C361.836 118.031 368.35 110.042 368.35 98.5929C368.35 90.8586 364.482 87.602 360.717 87.602C356.595 87.602 353.542 90.8586 353.542 94.7257C353.542 98.6438 356.748 100.934 359.903 100.934C360.717 102.206 360.921 103.325 360.921 104.903C360.921 113.298 354.509 116.25 351.66 116.25C351.66 116.962 352.983 118.031 355.171 118.031ZM9.20153 241H24.2208V145.304H9.20153V241ZM145.087 241H161.353L116.355 143.345H115.464L70.4659 241H86.7319L93.262 226.456H138.557L145.087 241ZM99.0797 213.574L115.939 176.174L132.74 213.574H99.0797ZM264.589 143.226L218.878 212.802L173.108 143.226H171.98V241H186.999V187.869L218.818 239.397H218.937L250.697 187.928V241H265.716V143.226H264.589Z" fill="#E8E8E8"/>
<path d="M347.402 242.603C366.815 242.603 381.537 231.68 381.537 214.701C381.537 199.623 369.783 192.321 354.645 185.672C343.009 180.685 334.164 178.014 334.164 170.534C334.164 163.767 341.169 158.305 349.955 158.305C356.901 158.305 363.49 161.926 366.458 168.397L377.619 160.68C373.701 150.172 363.49 143.582 349.836 143.582C332.621 143.582 319.026 154.506 319.026 170.178C319.026 185.197 331.493 191.015 342.713 196.002C353.873 200.81 366.458 206.153 366.458 214.998C366.458 222.3 358.325 227.465 347.58 227.465C338.379 227.465 330.424 223.191 326.15 215.711L314.277 224.2C319.738 235.242 331.671 242.603 347.402 242.603ZM450.875 145.304V185.672H409.438V145.304H394.479V241H409.438V200.573H450.875V241H465.894V145.304H450.875ZM551.142 241H567.408L522.41 143.345H521.519L476.521 241H492.787L499.317 226.456H544.612L551.142 241ZM505.134 213.574L521.994 176.174L538.794 213.574H505.134ZM639.892 145.067V207.459L578.806 143.642H578.034V241.119H593.054V178.726L654.259 242.662H654.971V145.067H639.892Z" fill="#6363EB"/>
</svg>
