<svg width="100%" height="100%" viewBox="0 0 312 183" fill="none" xmlns="http://www.w3.org/2000/svg">
<path d="M8.96484 43.4629V13.5801H3.40576V49H24.7632V43.4629H8.96484ZM72.5704 19.0513V13.5801H51.4767V49H72.5704V43.4629H57.0357V33.6631H70.4391V28.126H57.0357V19.0513H72.5704ZM122.839 13.5801H98.2731V19.0952H107.765V49H113.346V19.0952H122.839V13.5801ZM149.838 26.2144C153.265 26.2144 155.77 22.3911 155.77 17.9087C155.77 14.3931 154.012 12.6572 151.947 12.6572C149.816 12.6572 148.256 14.3711 148.256 16.3486C148.256 18.436 150.035 19.5127 151.376 19.5127C151.661 19.9741 151.727 20.3257 151.727 21.0728C151.727 24.061 149.31 25.2695 147.926 25.2695C147.926 25.5771 148.629 26.2144 149.838 26.2144ZM193.294 49.5933C200.479 49.5933 205.929 45.5503 205.929 39.2661C205.929 33.6851 201.578 30.9824 195.975 28.5215C191.668 26.6758 188.394 25.687 188.394 22.9185C188.394 20.4136 190.987 18.3921 194.239 18.3921C196.81 18.3921 199.249 19.7324 200.348 22.1274L204.478 19.271C203.028 15.3818 199.249 12.9429 194.195 12.9429C187.823 12.9429 182.791 16.9858 182.791 22.7866C182.791 28.3457 187.406 30.499 191.559 32.3447C195.689 34.1245 200.348 36.1021 200.348 39.376C200.348 42.0786 197.337 43.9902 193.36 43.9902C189.954 43.9902 187.01 42.4082 185.428 39.6396L181.034 42.7817C183.055 46.8687 187.472 49.5933 193.294 49.5933ZM20.083 110.571C25.3564 110.571 29.2456 108.264 32.2998 105.254L29.0918 100.771C26.6528 103.188 23.5327 104.99 19.9072 104.99C13.5571 104.99 7.33887 99.4751 7.33887 92.334C7.33887 85.2368 13.4692 79.6118 19.8853 79.6118C23.3569 79.6118 26.5869 81.2598 29.0698 83.7427L32.2998 79.3701C28.8281 75.9863 24.5874 74.0308 19.9951 73.9648C10.0415 73.9648 1.71387 82.3364 1.71387 92.312C1.71387 102.31 10.0415 110.571 20.083 110.571ZM85.2926 110L74.9874 95.8276C79.0523 94.5093 81.9967 90.5322 81.9967 85.9619C81.9967 79.6558 76.5914 74.5801 69.9996 74.5801H58.9913L59.0133 110H64.5724V96.2891H68.923L78.4591 110H85.2926ZM64.5504 91.6748V80.0952H70.1314C73.4273 80.0952 76.2618 82.5342 76.2618 85.8301C76.2618 88.9941 73.4713 91.6968 70.1314 91.6748H64.5504ZM132.419 80.0513V74.5801H111.325V110H132.419V104.463H116.884V94.6631H130.287V89.126H116.884V80.0513H132.419ZM185.214 110H191.234L174.579 73.855H174.249L157.594 110H163.615L166.032 104.617H182.797L185.214 110ZM168.185 99.8486L174.425 86.0059L180.643 99.8486H168.185ZM235.24 74.5801H210.675V80.0952H220.167V110H225.748V80.0952H235.24V74.5801ZM283.047 80.0513V74.5801H261.954V110H283.047V104.463H267.513V94.6631H280.916V89.126H267.513V80.0513H283.047ZM25.5981 135.58H1.03271V141.095H10.5249V171H16.106V141.095H25.5981V135.58ZM73.1856 135.58V150.521H57.8487V135.58H52.3116V171H57.8487V156.037H73.1856V171H78.7447V135.58H73.1856ZM107.853 171H113.412V135.58H107.853V171ZM165.416 135.492V158.585L142.806 134.965H142.521V171.044H148.08V147.951L170.734 171.615H170.997V135.492H165.416ZM233.57 151.664H216.805V156.762H227.769V156.872C227.769 162.277 223.199 165.99 217.113 165.99C209.554 165.99 204.039 160.277 204.039 153.334C204.039 145.995 210.147 140.59 216.607 140.59C219.969 140.59 223.704 142.304 226.473 145.028L229.571 140.414C226.231 137.162 221.134 135.009 216.673 134.987C206.61 134.987 198.392 143.271 198.392 153.334C198.392 163.375 206.566 171.593 216.871 171.593C226.078 171.593 233.724 164.958 233.724 154.433C233.724 153.444 233.658 152.477 233.57 151.664ZM271.336 171.593C278.521 171.593 283.97 167.55 283.97 161.266C283.97 155.685 279.62 152.982 274.017 150.521C269.71 148.676 266.436 147.687 266.436 144.918C266.436 142.414 269.029 140.392 272.281 140.392C274.852 140.392 277.291 141.732 278.389 144.127L282.52 141.271C281.07 137.382 277.291 134.943 272.237 134.943C265.865 134.943 260.833 138.986 260.833 144.787C260.833 150.346 265.447 152.499 269.6 154.345C273.731 156.125 278.389 158.102 278.389 161.376C278.389 164.079 275.379 165.99 271.402 165.99C267.996 165.99 265.052 164.408 263.47 161.64L259.075 164.782C261.097 168.869 265.513 171.593 271.336 171.593Z" fill="#E5E5E5"/>
</svg>
