<svg viewBox="0 0 33 33" xmlns="http://www.w3.org/2000/svg">
<path d="M0.396484 23.863L3.11693 28.5651C3.38743 29.1035 3.80214 29.5562 4.31483 29.8727C4.82752 30.1892 5.41805 30.3571 6.02056 30.3576H24.0794L20.3314 23.863H0.396484ZM32.6031 23.8942C32.6017 23.2695 32.4215 22.6583 32.0837 22.1329L21.4998 3.73889C21.2239 3.21636 20.8105 2.77907 20.3044 2.47418C19.7982 2.1693 19.2183 2.00838 18.6274 2.00879H13.0345L29.3794 30.3254L31.9589 25.8648C32.4622 25.0103 32.6041 24.6329 32.6041 23.8942H32.6031ZM17.6683 19.2504L10.3664 6.60125L3.05957 19.2504H17.6683Z"/>
</svg>
