<svg width="100%" height="100%" viewBox="0 0 33 33" xmlns="http://www.w3.org/2000/svg">
<path d="M17.6612 0.291484C15.3575 0.123792 13.0448 0.454073 10.8802 1.25987C8.71557 2.06567 6.74983 3.32809 5.1166 4.96132C3.48337 6.59455 2.22094 8.56029 1.41515 10.7249C0.609346 12.8895 0.279066 15.2023 0.446757 17.5059C1.02648 26.0245 8.4662 32.4497 17.0009 32.4497H22.9431C23.8287 32.4497 24.5534 31.7251 24.5534 30.8394C24.5534 29.9537 23.8287 29.2291 22.9431 29.2291H17.0331C11.0266 29.2291 5.51929 25.3321 4.02169 19.5188C1.6223 10.1789 10.3181 1.46702 19.658 3.88251C25.4874 5.36402 29.3844 10.8713 29.3844 16.8779V18.6492C29.3844 19.9214 28.241 21.1774 26.9689 21.1774C25.6967 21.1774 24.5534 19.9214 24.5534 18.6492V16.6363C24.5534 12.5944 21.687 8.95505 17.6934 8.39143C16.4228 8.2025 15.1254 8.31983 13.9093 8.73365C12.6932 9.14748 11.5935 9.84583 10.7019 10.7706C9.81023 11.6953 9.15239 12.8196 8.78312 14.05C8.41385 15.2804 8.34384 16.5812 8.57892 17.8441C8.86135 19.3658 9.57672 20.7737 10.6392 21.8991C11.7018 23.0244 13.0663 23.8194 14.5693 24.1887C17.5323 24.8812 20.3504 23.9311 22.2023 22.047C23.6355 24.0116 26.5019 25.0422 29.1267 23.9955C31.2846 23.142 32.605 20.9198 32.605 18.6009V16.8618C32.605 8.31091 26.1798 0.871202 17.6612 0.291484ZM16.5017 21.1774C13.8286 21.1774 11.6708 19.0196 11.6708 16.3465C11.6708 13.6733 13.8286 11.5155 16.5017 11.5155C19.1749 11.5155 21.3327 13.6733 21.3327 16.3465C21.3327 19.0196 19.1749 21.1774 16.5017 21.1774Z"/>
</svg>
