<svg width="100%" height="100%" viewBox="0 0 33 33" xmlns="http://www.w3.org/2000/svg">
<path d="M20.4551 28.9944C20.4551 29.7912 20.5683 30.2662 20.7948 30.4194C20.8703 30.4704 20.9664 30.4704 21.0578 30.4703L21.0659 30.4703H28.8141C29.8604 30.4703 30.7086 29.6221 30.7086 28.5758V3.94724C30.7086 2.90093 29.8604 2.05273 28.8141 2.05273H4.18552C3.13921 2.05273 2.29102 2.90093 2.29102 3.94724V28.5758C2.29102 29.6221 3.13921 30.4703 4.18552 30.4703H12.7362C13.0942 30.4235 13.2732 29.9315 13.2732 28.9944V28.5071C13.2732 27.4921 12.2462 26.8432 11.2596 26.6048C10.6779 26.4643 10.2192 26.312 9.88362 26.148C9.54802 25.984 9.25716 25.738 9.01105 25.41C8.76494 25.082 8.61952 24.8595 8.57477 24.7423C8.53002 24.6252 8.48528 24.5198 8.44053 24.4261C8.03781 23.3016 7.50084 22.5753 6.82964 22.2473C6.33742 21.9662 6.15843 21.7554 6.29267 21.6148C6.42691 21.4742 6.54997 21.3922 6.66184 21.3688C6.7737 21.3454 6.87438 21.3337 6.96388 21.3337C7.90356 21.4274 8.64189 21.9428 9.17885 22.8799C10.0006 24.4287 11.2374 24.9109 12.8892 24.3265C13.1725 24.2262 13.3611 23.8949 13.4257 23.6013C13.5781 22.9081 13.1515 21.9544 12.4704 21.7544C11.3201 21.4166 10.3348 20.8898 9.51446 20.174C8.30629 19.1198 7.7022 17.3042 7.7022 14.7272C7.7022 13.5779 7.97416 12.5451 8.51808 11.6287C8.87183 11.0328 9.00019 10.3188 8.91367 9.63118C8.81145 8.81879 8.9056 7.95966 9.19612 7.05381C9.26185 6.84883 9.45602 6.71509 9.67128 6.71509C9.70092 6.71509 9.73035 6.7121 9.75982 6.70895C10.0331 6.67976 10.4771 6.78722 11.0918 7.03135C11.5301 7.20542 12.0041 7.44897 12.5138 7.762C13.0034 8.06267 13.5922 8.15829 14.1544 8.03976C15.0096 7.85946 15.9016 7.76931 16.8306 7.76931C17.7645 7.76931 18.6736 7.86043 19.5579 8.04268C20.1288 8.16036 20.726 8.05301 21.2137 7.73359C22.1261 7.136 22.8871 6.78347 23.4966 6.67601C24.036 6.58092 24.4802 7.00299 24.622 7.53201C24.8146 8.25103 24.8672 8.9395 24.7798 9.59741C24.6856 10.306 24.8036 11.0471 25.1641 11.6644C25.694 12.5718 25.959 13.5928 25.959 14.7272C25.959 17.3511 25.3661 19.1784 24.1803 20.2092C23.665 20.6571 23.0758 21.0298 22.4127 21.3273C21.3154 21.8197 20.4551 23.7153 20.4551 24.9181V28.9944Z"/>
</svg>
