<svg width="100%" height="100%" viewBox="0 0 35 33" xmlns="http://www.w3.org/2000/svg">
<path d="M31.8871 1.12402H3.11427C2.42232 1.12402 1.86328 1.65945 1.86328 2.32219V29.8799C1.86328 30.5426 2.42232 31.0781 3.11427 31.0781H31.8871C32.579 31.0781 33.1381 30.5426 33.1381 29.8799V2.32219C33.1381 1.65945 32.579 1.12402 31.8871 1.12402ZM20.8822 10.069H26.2928V11.3309H20.8822V10.069ZM17.5007 20.4743C17.2476 20.9344 16.8862 21.3318 16.4451 21.6351C15.9838 21.9421 15.4717 22.1667 14.9283 22.2978C14.3598 22.4437 13.7733 22.5155 13.1847 22.5112H6.71087V9.73955H13.0049C13.6421 9.73955 14.2207 9.79572 14.7485 9.90056C15.2723 10.0054 15.718 10.1851 16.0933 10.4285C16.4647 10.6719 16.7579 10.9976 16.9651 11.402C17.1684 11.8026 17.2739 12.3044 17.2739 12.8997C17.2739 13.5437 17.1215 14.0754 16.8165 14.506C16.5077 14.9366 16.062 15.2848 15.4561 15.5581C16.281 15.7828 16.8869 16.1834 17.2857 16.7451C17.6922 17.3142 17.8916 17.9956 17.8916 18.7969C17.8916 19.4484 17.7626 20.0063 17.5007 20.4743ZM28.3999 18.4974H21.4256C21.4256 19.2238 21.6876 19.9202 22.0824 20.2946C22.4812 20.6653 23.0519 20.8525 23.7986 20.8525C24.3381 20.8525 24.7955 20.7215 25.1864 20.4631C25.5735 20.2047 25.808 19.9314 25.894 19.6469H28.2318C27.8565 20.7589 27.2858 21.5527 26.5117 22.0319C25.7455 22.5112 24.8072 22.7508 23.7165 22.7508C22.9542 22.7508 22.2701 22.631 21.6563 22.4026C21.066 22.1817 20.5343 21.8447 20.0965 21.4104C19.6648 20.9644 19.3311 20.4398 19.1152 19.8678C18.8768 19.235 18.7595 18.5685 18.7673 17.8983C18.7673 17.2056 18.8885 16.5616 19.123 15.9625C19.5726 14.798 20.507 13.8657 21.6993 13.3827C22.3365 13.1281 23.0207 13.0008 23.7126 13.0083C24.5336 13.0083 25.2451 13.1581 25.8628 13.4651C26.4574 13.7583 26.9737 14.1785 27.3718 14.6932C27.7666 15.2062 28.0442 15.7903 28.2201 16.4493C28.3882 17.097 28.4468 17.7785 28.3999 18.4974ZM23.6305 14.9179C23.2083 14.9179 22.8526 14.989 22.5789 15.1275C22.3053 15.2661 22.0785 15.4383 21.9065 15.6368C21.7427 15.8284 21.6216 16.0501 21.5507 16.2883C21.4882 16.4867 21.4452 16.6889 21.4296 16.8948H25.7494C25.6868 16.2471 25.4523 15.7678 25.1395 15.4308C24.8111 15.0976 24.2834 14.9179 23.6305 14.9179ZM13.9158 14.5397C14.2559 14.3038 14.4201 13.9144 14.4201 13.379C14.4318 13.1244 14.3771 12.8735 14.2598 12.6451C14.1543 12.4616 13.9979 12.3081 13.8063 12.1995C13.6077 12.0842 13.3871 12.0078 13.1574 11.9749C12.9072 11.9299 12.6531 11.9075 12.4029 11.9112H9.65461V14.8954H12.6296C13.1417 14.8991 13.5757 14.7793 13.9158 14.5397ZM14.3771 17.2356C13.994 16.9547 13.4819 16.8162 12.8446 16.8162H9.64679V20.3358H12.7821C13.0753 20.3358 13.345 20.3096 13.607 20.2572C13.8689 20.2047 14.1034 20.1149 14.3028 19.9876C14.5022 19.864 14.6625 19.6955 14.7837 19.4784C14.901 19.2612 14.9596 18.9841 14.9596 18.6509C14.9596 17.9881 14.7641 17.5201 14.3771 17.2356Z"/>
</svg>
